<svg xmlns="http://www.w3.org/2000/svg" width="1100" height="520" viewBox="0 0 1100 520" role="img" aria-labelledby="title desc">
  <title id="title">Guide generation pipeline</title>
  <desc id="desc">From OxfordAQA subject page to validated guide output.</desc>
  <rect width="1100" height="520" rx="24" fill="#f7f9fc"/>
  <text x="52" y="62" font-family="Segoe UI, Arial, sans-serif" font-size="30" font-weight="800" fill="#172033">Generation pipeline</text>
  <text x="52" y="92" font-family="Segoe UI, Arial, sans-serif" font-size="15" fill="#5b677a">Deterministic source extraction first. Optional authoring later.</text>
  <g font-family="Segoe UI, Arial, sans-serif">
    <g transform="translate(52 140)">
      <rect width="182" height="96" rx="16" fill="#124f9b"/>
      <text x="20" y="36" font-size="18" font-weight="800" fill="#fff">1. Discover</text>
      <text x="20" y="64" font-size="13" fill="#dceaff">subject page</text>
    </g>
    <g transform="translate(258 140)">
      <rect width="182" height="96" rx="16" fill="#ffffff" stroke="#cbd6e6"/>
      <text x="20" y="36" font-size="18" font-weight="800" fill="#172033">2. Download</text>
      <text x="20" y="64" font-size="13" fill="#5b677a">specification PDF</text>
    </g>
    <g transform="translate(464 140)">
      <rect width="182" height="96" rx="16" fill="#ffffff" stroke="#cbd6e6"/>
      <text x="20" y="36" font-size="18" font-weight="800" fill="#172033">3. Extract</text>
      <text x="20" y="64" font-size="13" fill="#5b677a">page text + topics</text>
    </g>
    <g transform="translate(670 140)">
      <rect width="182" height="96" rx="16" fill="#ffffff" stroke="#cbd6e6"/>
      <text x="20" y="36" font-size="18" font-weight="800" fill="#172033">4. Plan</text>
      <text x="20" y="64" font-size="13" fill="#5b677a">source-bound guide</text>
    </g>
    <g transform="translate(876 140)">
      <rect width="172" height="96" rx="16" fill="#b83246"/>
      <text x="20" y="36" font-size="18" font-weight="800" fill="#fff">5. Validate</text>
      <text x="20" y="64" font-size="13" fill="#ffe4ea">HTML + PDF</text>
    </g>
    <g stroke="#d99a24" stroke-width="4" stroke-linecap="round">
      <line x1="236" y1="188" x2="254" y2="188"/>
      <line x1="442" y1="188" x2="460" y2="188"/>
      <line x1="648" y1="188" x2="666" y2="188"/>
      <line x1="854" y1="188" x2="872" y2="188"/>
    </g>
    <g transform="translate(52 300)">
      <rect width="996" height="142" rx="18" fill="#fffaf1" stroke="#efd7a0"/>
      <text x="24" y="42" font-size="20" font-weight="800" fill="#1f7a5b">Quality gates</text>
      <text x="24" y="78" font-size="15" fill="#172033">source URL + PDF hash</text>
      <text x="258" y="78" font-size="15" fill="#172033">topic coverage</text>
      <text x="452" y="78" font-size="15" fill="#172033">assessment coverage</text>
      <text x="690" y="78" font-size="15" fill="#172033">guide block coverage</text>
      <text x="24" y="112" font-size="15" fill="#172033">page-level source snippets</text>
      <text x="258" y="112" font-size="15" fill="#172033">practice cards</text>
      <text x="452" y="112" font-size="15" fill="#172033">diagram briefs</text>
      <text x="690" y="112" font-size="15" fill="#172033">HTML/PDF output checks</text>
    </g>
  </g>
</svg>
